<svg width="49" height="49" viewBox="0 0 49 49" fill="none" xmlns="http://www.w3.org/2000/svg">
<g clip-path="url(#clip0_14_1145)">
<path d="M17.87 36.4997H7.5C2.92 36.4997 0.5 34.0797 0.5 29.4997V19.1237C0.5 9.69369 8.146 1.18569 17.196 0.543693C22.398 0.181693 27.518 2.08169 31.21 5.77369C34.914 9.47769 36.824 14.6057 36.454 19.8457C35.818 28.8737 27.306 36.4997 17.87 36.4997ZM18.47 2.49969C18.094 2.49969 17.716 2.51369 17.338 2.54169C9.294 3.10969 2.5 10.7037 2.5 19.1237V29.4997C2.5 32.9577 4.042 34.4997 7.5 34.4997H17.87C26.296 34.4997 33.894 27.7257 34.46 19.7077C34.79 15.0457 33.088 10.4837 29.794 7.18969C26.782 4.17569 22.708 2.49969 18.47 2.49969ZM48.502 42.5017V33.0497C48.502 27.6537 45.654 22.3417 41.068 19.1897C40.614 18.8777 39.992 18.9937 39.678 19.4477C39.366 19.9037 39.48 20.5257 39.936 20.8377C43.986 23.6237 46.502 28.2997 46.502 33.0477V42.4997C46.502 45.8037 44.328 46.4977 42.502 46.4977H33.058C28.31 46.4977 23.63 43.9817 20.844 39.9317C20.53 39.4737 19.908 39.3617 19.454 39.6737C19 39.9857 18.884 40.6097 19.196 41.0637C22.352 45.6497 27.662 48.4977 33.06 48.4977H42.504C46.206 48.4977 48.504 46.1997 48.504 42.4997L48.502 42.5017Z" fill="#242424"/>
</g>
<defs>
<clipPath id="clip0_14_1145">
<rect width="48" height="48" fill="white" transform="translate(0.5 0.5)"/>
</clipPath>
</defs>
</svg>
