<svg width="49" height="49" viewBox="0 0 49 49" fill="none" xmlns="http://www.w3.org/2000/svg">
<g clip-path="url(#clip0_14_1137)">
<path d="M11.5 20.5C5.332 20.5 0.5 23.136 0.5 26.5V42.5C0.5 45.864 5.332 48.5 11.5 48.5C17.668 48.5 22.5 45.864 22.5 42.5V26.5C22.5 23.136 17.668 20.5 11.5 20.5ZM20.5 34.5C20.5 36.392 16.804 38.5 11.5 38.5C6.196 38.5 2.5 36.392 2.5 34.5V29.992C4.474 31.52 7.74 32.5 11.5 32.5C15.26 32.5 18.526 31.52 20.5 29.992V34.5ZM11.5 22.5C16.804 22.5 20.5 24.608 20.5 26.5C20.5 28.392 16.804 30.5 11.5 30.5C6.196 30.5 2.5 28.392 2.5 26.5C2.5 24.608 6.196 22.5 11.5 22.5ZM11.5 46.5C6.196 46.5 2.5 44.392 2.5 42.5V37.992C4.474 39.52 7.74 40.5 11.5 40.5C15.26 40.5 18.526 39.52 20.5 37.992V42.5C20.5 44.392 16.804 46.5 11.5 46.5ZM40.5 11.5C40.5 9.846 39.154 8.5 37.5 8.5H19.5C17.846 8.5 16.5 9.846 16.5 11.5V15.5C16.5 17.154 17.846 18.5 19.5 18.5H37.5C39.154 18.5 40.5 17.154 40.5 15.5V11.5ZM38.5 15.5C38.5 16.052 38.05 16.5 37.5 16.5H19.5C18.95 16.5 18.5 16.052 18.5 15.5V11.5C18.5 10.948 18.95 10.5 19.5 10.5H37.5C38.05 10.5 38.5 10.948 38.5 11.5V15.5ZM40.5 25.5C40.5 26.052 40.052 26.5 39.5 26.5C38.948 26.5 38.5 26.052 38.5 25.5V23.5C38.5 22.948 38.948 22.5 39.5 22.5C40.052 22.5 40.5 22.948 40.5 23.5V25.5ZM32.5 25.5V23.5C32.5 22.948 32.948 22.5 33.5 22.5C34.052 22.5 34.5 22.948 34.5 23.5V25.5C34.5 26.052 34.052 26.5 33.5 26.5C32.948 26.5 32.5 26.052 32.5 25.5ZM26.5 25.5V23.5C26.5 22.948 26.948 22.5 27.5 22.5C28.052 22.5 28.5 22.948 28.5 23.5V25.5C28.5 26.052 28.052 26.5 27.5 26.5C26.948 26.5 26.5 26.052 26.5 25.5ZM26.5 31.5C26.5 30.948 26.948 30.5 27.5 30.5C28.052 30.5 28.5 30.948 28.5 31.5V33.5C28.5 34.052 28.052 34.5 27.5 34.5C26.948 34.5 26.5 34.052 26.5 33.5V31.5ZM32.5 31.5C32.5 30.948 32.948 30.5 33.5 30.5C34.052 30.5 34.5 30.948 34.5 31.5V33.5C34.5 34.052 34.052 34.5 33.5 34.5C32.948 34.5 32.5 34.052 32.5 33.5V31.5ZM40.5 33.5C40.5 34.052 40.052 34.5 39.5 34.5C38.948 34.5 38.5 34.052 38.5 33.5V31.5C38.5 30.948 38.948 30.5 39.5 30.5C40.052 30.5 40.5 30.948 40.5 31.5V33.5ZM26.5 39.5C26.5 38.948 26.948 38.5 27.5 38.5H39.5C40.052 38.5 40.5 38.948 40.5 39.5C40.5 40.052 40.052 40.5 39.5 40.5H27.5C26.948 40.5 26.5 40.052 26.5 39.5ZM48.5 9.5V39.5C48.5 44.462 44.462 48.5 39.5 48.5H25.5C24.948 48.5 24.5 48.052 24.5 47.5C24.5 46.948 24.948 46.5 25.5 46.5H39.5C43.36 46.5 46.5 43.36 46.5 39.5V9.5C46.5 5.64 43.36 2.5 39.5 2.5H17.5C13.64 2.5 10.5 5.64 10.5 9.5V15.5C10.5 16.052 10.052 16.5 9.5 16.5C8.948 16.5 8.5 16.052 8.5 15.5V9.5C8.5 4.538 12.538 0.5 17.5 0.5H39.5C44.462 0.5 48.5 4.538 48.5 9.5Z" fill="#242424"/>
</g>
<defs>
<clipPath id="clip0_14_1137">
<rect width="48" height="48" fill="white" transform="translate(0.5 0.5)"/>
</clipPath>
</defs>
</svg>
