<svg width="49" height="49" viewBox="0 0 49 49" fill="none" xmlns="http://www.w3.org/2000/svg">
<g clip-path="url(#clip0_14_1163)">
<path d="M42.656 2.772C39.85 1.266 36.896 0.5 33.88 0.5H15.12C12.102 0.5 9.15 1.264 6.344 2.772C2.74 4.708 0.5 8.54 0.5 12.772V35.5C0.5 39.36 3.64 42.5 7.5 42.5H9.014C10.252 45.992 13.588 48.5 17.5 48.5H31.5C35.43 48.5 38.778 45.97 40.002 42.452H41.5C45.36 42.452 48.5 39.312 48.5 35.452V12.772C48.5 8.54 46.262 4.708 42.656 2.772ZM31.428 2.5C30.942 5.888 28.02 8.5 24.5 8.5C20.98 8.5 18.058 5.888 17.572 2.5H31.428ZM46.5 35.452C46.5 38.208 44.258 40.452 41.5 40.452H40.45C40.484 40.14 40.5 39.822 40.5 39.5V15.5C40.5 14.948 40.052 14.5 39.5 14.5C38.948 14.5 38.5 14.948 38.5 15.5V39.5C38.5 43.36 35.36 46.5 31.5 46.5H17.5C13.64 46.5 10.5 43.36 10.5 39.5V15.5C10.5 14.948 10.052 14.5 9.5 14.5C8.948 14.5 8.5 14.948 8.5 15.5V39.5C8.5 39.838 8.52 40.172 8.556 40.5H7.5C4.744 40.5 2.5 38.256 2.5 35.5V12.772C2.5 9.276 4.334 6.12 7.29 4.534C9.802 3.186 12.436 2.5 15.12 2.5H15.556C16.056 6.994 19.876 10.5 24.5 10.5C29.124 10.5 32.946 6.994 33.444 2.5H33.88C36.562 2.5 39.196 3.184 41.71 4.534C44.664 6.12 46.5 9.278 46.5 12.772V35.452Z" fill="#242424"/>
</g>
<defs>
<clipPath id="clip0_14_1163">
<rect width="48" height="48" fill="white" transform="translate(0.5 0.5)"/>
</clipPath>
</defs>
</svg>
