<svg width="49" height="49" viewBox="0 0 49 49" fill="none" xmlns="http://www.w3.org/2000/svg">
<g clip-path="url(#clip0_14_1167)">
<path d="M0.5 19.5C0.5 18.948 0.948 18.5 1.5 18.5H11.5C12.052 18.5 12.5 18.948 12.5 19.5C12.5 20.052 12.052 20.5 11.5 20.5H1.5C0.948 20.5 0.5 20.052 0.5 19.5ZM48.5 21.5V31.5C48.5 34.492 46.612 37.052 43.964 38.052C44.316 38.82 44.5 39.648 44.5 40.5C44.5 43.808 41.808 46.5 38.5 46.5C35.192 46.5 32.5 43.808 32.5 40.5C32.5 39.812 32.62 39.138 32.852 38.5H16.148C16.38 39.138 16.5 39.812 16.5 40.5C16.5 43.808 13.808 46.5 10.5 46.5C7.192 46.5 4.5 43.808 4.5 40.5C4.5 39.648 4.684 38.82 5.036 38.052C2.388 37.052 0.5 34.492 0.5 31.5V25.5C0.5 24.948 0.948 24.5 1.5 24.5C2.052 24.5 2.5 24.948 2.5 25.5V31.5C2.5 34.256 4.742 36.5 7.5 36.5H32.5V11.5C32.5 7.64 29.36 4.5 25.5 4.5C24.948 4.5 24.5 4.052 24.5 3.5C24.5 2.948 24.948 2.5 25.5 2.5C30.462 2.5 34.5 6.538 34.5 11.5V12.5H39.5C44.462 12.5 48.5 16.538 48.5 21.5ZM34.5 14.5V24.5H46.5V21.5C46.5 17.64 43.36 14.5 39.5 14.5H34.5ZM13.946 38.5H7.5C7.354 38.5 7.208 38.494 7.062 38.486C6.692 39.104 6.5 39.79 6.5 40.5C6.5 42.706 8.294 44.5 10.5 44.5C12.706 44.5 14.5 42.706 14.5 40.5C14.5 39.796 14.31 39.114 13.946 38.5ZM41.938 38.486C41.794 38.496 41.648 38.5 41.5 38.5H35.054C34.69 39.114 34.5 39.796 34.5 40.5C34.5 42.706 36.294 44.5 38.5 44.5C40.706 44.5 42.5 42.706 42.5 40.5C42.5 39.79 42.306 39.104 41.938 38.486ZM46.5 31.5V26.5H34.5V36.5H41.5C44.258 36.5 46.5 34.256 46.5 31.5ZM1.5 4.5H19.5C20.052 4.5 20.5 4.052 20.5 3.5C20.5 2.948 20.052 2.5 19.5 2.5H1.5C0.948 2.5 0.5 2.948 0.5 3.5C0.5 4.052 0.948 4.5 1.5 4.5ZM1.5 12.5H15.5C16.052 12.5 16.5 12.052 16.5 11.5C16.5 10.948 16.052 10.5 15.5 10.5H1.5C0.948 10.5 0.5 10.948 0.5 11.5C0.5 12.052 0.948 12.5 1.5 12.5Z" fill="#242424"/>
</g>
<defs>
<clipPath id="clip0_14_1167">
<rect width="48" height="48" fill="white" transform="translate(0.5 0.5)"/>
</clipPath>
</defs>
</svg>
