<svg width="48" height="48" viewBox="0 0 48 48" fill="none" xmlns="http://www.w3.org/2000/svg">
<path fill-rule="evenodd" clip-rule="evenodd" d="M38.4619 14.0181C38.6071 13.9725 38.7981 14.0637 38.9891 14.3148C38.9891 14.3148 38.9891 14.3148 47.6219 22.7271C48.1261 23.2291 48.1261 23.9897 47.6219 24.3625C47.6219 24.3625 47.6219 24.3624 38.9891 32.9041C38.7981 33.1551 38.6071 33.216 38.4619 33.1399C38.3168 33.0639 38.2251 32.8433 38.2251 32.5238V14.5658C38.2251 14.2539 38.3168 14.0637 38.4619 14.0181Z" fill="#242424"/>
<path fill-rule="evenodd" clip-rule="evenodd" d="M23.6947 3.05176e-05H24.3059L24.8941 0.243428C24.8941 0.243428 24.8941 0.243427 33.7791 9.03611C34.161 9.53812 34.0312 9.91842 33.3971 9.91842C33.3971 9.91842 33.3971 9.91842 29.7148 9.91842C29.0807 9.91842 28.5764 10.4204 28.5764 11.0517C28.5764 11.0517 28.5764 11.0517 28.5764 17.5778C28.5764 18.2091 28.0646 18.7111 27.3006 18.7111C27.3006 18.7111 27.3006 18.7111 20.8298 18.7111C20.1957 18.7111 19.6839 18.2091 19.6839 17.5778C19.6839 17.5778 19.6839 17.5778 19.6839 11.0517C19.6839 10.4204 19.1797 9.91842 18.5379 9.91842H14.6035C13.9694 9.91842 13.8395 9.53812 14.2215 9.03611C14.2215 9.03611 14.2215 9.03612 23.1141 0.243428L23.6947 3.05176e-05Z" fill="#242424"/>
<path fill-rule="evenodd" clip-rule="evenodd" d="M9.77495 13.828C9.93538 13.904 10.0347 14.1246 10.0347 14.4441V32.7749C10.0347 33.0943 9.93538 33.2845 9.77495 33.3453C9.62215 33.4062 9.40061 33.3453 9.14086 33.1552C9.14086 33.1552 9.14086 33.1552 0.378163 24.3625C-0.126054 23.9898 -0.126054 23.2292 0.378163 22.7272C0.378163 22.7272 0.378164 22.7272 9.14086 14.0638C9.40061 13.8128 9.62215 13.7519 9.77495 13.828Z" fill="#242424"/>
<path fill-rule="evenodd" clip-rule="evenodd" d="M20.8293 28.2568C20.8293 28.2568 20.8293 28.2568 27.3001 28.2568C28.0641 28.2568 28.576 28.7588 28.576 29.3901C28.576 29.3901 28.576 29.3901 28.576 36.2965C28.576 37.0495 29.0802 37.5515 29.7143 37.5515H33.1445C33.7786 37.5515 34.0307 37.9242 33.5265 38.3045C33.5265 38.3045 33.5265 38.3045 24.8936 46.9679C24.6339 47.2189 24.3207 47.3482 23.9998 47.3482C23.6866 47.3482 23.3657 47.2189 23.1136 46.9679C23.1136 46.9679 23.1136 46.9679 14.4808 38.3045C13.9689 37.9242 14.221 37.5515 14.8551 37.5515C14.8551 37.5515 14.8551 37.5515 18.5374 37.5515C19.1792 37.5515 19.6834 37.0495 19.6834 36.2965C19.6834 36.2965 19.6834 36.2965 19.6834 29.3901C19.6834 28.7588 20.1952 28.2568 20.8293 28.2568Z" fill="#242424"/>
</svg>
