<svg width="48" height="48" viewBox="0 0 48 48" fill="none" xmlns="http://www.w3.org/2000/svg">
<g clip-path="url(#clip0_7_274)">
<path d="M2.00001 48C1.48801 48 0.976012 47.804 0.586012 47.414C-0.195988 46.632 -0.195988 45.368 0.586012 44.586L44.586 0.585997C45.368 -0.196004 46.632 -0.196004 47.414 0.585997C48.196 1.368 48.196 2.632 47.414 3.414L3.41401 47.414C3.02401 47.804 2.51201 48 2.00001 48ZM18 10C18 5.588 14.412 2 10 2C5.58801 2 2.00001 5.588 2.00001 10C2.00001 14.412 5.58801 18 10 18C14.412 18 18 14.412 18 10ZM14 10C14 12.206 12.206 14 10 14C7.79401 14 6.00001 12.206 6.00001 10C6.00001 7.794 7.79401 6 10 6C12.206 6 14 7.794 14 10ZM46 38C46 33.588 42.412 30 38 30C33.588 30 30 33.588 30 38C30 42.412 33.588 46 38 46C42.412 46 46 42.412 46 38ZM42 38C42 40.206 40.206 42 38 42C35.794 42 34 40.206 34 38C34 35.794 35.794 34 38 34C40.206 34 42 35.794 42 38Z" fill="#242424"/>
</g>
<defs>
<clipPath id="clip0_7_274">
<rect width="48" height="48" fill="white"/>
</clipPath>
</defs>
</svg>
