<svg width="48" height="48" viewBox="0 0 48 48" fill="none" xmlns="http://www.w3.org/2000/svg">
<g clip-path="url(#clip0_7_280)">
<path d="M37.162 4.27999L24.632 0.101993C24.2217 -0.0346488 23.7783 -0.0346488 23.368 0.101993L10.838 4.27999C8.84581 4.94176 7.11283 6.21451 5.88529 7.91741C4.65775 9.62032 3.99808 11.6668 4 13.766V24C4 39.126 22.4 47.48 23.188 47.828C23.4436 47.9416 23.7203 48.0003 24 48.0003C24.2797 48.0003 24.5564 47.9416 24.812 47.828C25.6 47.48 44 39.126 44 24V13.766C44.0019 11.6668 43.3423 9.62032 42.1147 7.91741C40.8872 6.21451 39.1542 4.94176 37.162 4.27999ZM40 24C40 34.91 27.362 42.066 24 43.778C20.634 42.072 8 34.938 8 24V13.766C8.00012 12.5065 8.39655 11.2791 9.13313 10.2575C9.86972 9.23589 10.9091 8.47198 12.104 8.07399L24 4.10799L35.896 8.07399C37.0909 8.47198 38.1303 9.23589 38.8669 10.2575C39.6035 11.2791 39.9999 12.5065 40 13.766V24Z" fill="black"/>
<path d="M30.6001 16.6L22.2241 25L17.7361 20.32C17.556 20.1231 17.3383 19.9642 17.0958 19.8527C16.8533 19.7412 16.591 19.6794 16.3243 19.6708C16.0575 19.6623 15.7918 19.7072 15.5427 19.803C15.2936 19.8987 15.0662 20.0433 14.8738 20.2283C14.6815 20.4133 14.5281 20.635 14.4227 20.8802C14.3174 21.1253 14.2621 21.3891 14.2603 21.656C14.2585 21.9229 14.31 22.1874 14.412 22.434C14.514 22.6806 14.6643 22.9044 14.8541 23.092L19.4661 27.892C19.81 28.2635 20.2257 28.5614 20.6881 28.7676C21.1505 28.9739 21.6499 29.0842 22.1561 29.092H22.2221C22.7182 29.0936 23.2097 28.9967 23.668 28.8068C24.1264 28.617 24.5424 28.338 24.8921 27.986L33.4361 19.442C33.6227 19.2558 33.7708 19.0346 33.8719 18.7912C33.9731 18.5477 34.0253 18.2867 34.0255 18.0231C34.0258 17.7595 33.9742 17.4984 33.8736 17.2547C33.7729 17.0111 33.6253 16.7896 33.4391 16.603C33.2529 16.4164 33.0317 16.2683 32.7883 16.1671C32.5448 16.066 32.2838 16.0138 32.0202 16.0135C31.7566 16.0132 31.4955 16.0649 31.2518 16.1655C31.0081 16.2661 30.7867 16.4138 30.6001 16.6Z" fill="black"/>
</g>
<defs>
<clipPath id="clip0_7_280">
<rect width="48" height="48" fill="white"/>
</clipPath>
</defs>
</svg>
