<svg width="22" height="22" viewBox="0 0 22 22" fill="none" xmlns="http://www.w3.org/2000/svg">
<g clip-path="url(#clip0_41_214)">
<path fill-rule="evenodd" clip-rule="evenodd" d="M17.407 6.62993C17.4727 6.60928 17.5591 6.65059 17.6456 6.76419C17.6456 6.76419 17.6456 6.76418 21.5525 10.5714C21.7807 10.7986 21.7807 11.1428 21.5525 11.3115C21.5525 11.3115 21.5525 11.3115 17.6456 15.1773C17.5591 15.2909 17.4727 15.3184 17.407 15.284C17.3413 15.2496 17.2998 15.1497 17.2998 15.0051V6.87778C17.2998 6.73665 17.3413 6.65059 17.407 6.62993Z" fill="#ED1C24"/>
<path fill-rule="evenodd" clip-rule="evenodd" d="M10.7231 0.285706H10.9997L11.266 0.395861C11.266 0.395861 11.266 0.395861 15.287 4.37521C15.4599 4.6024 15.4011 4.77452 15.1142 4.77452C15.1142 4.77452 15.1142 4.77452 13.4476 4.77452C13.1607 4.77452 12.9325 5.00171 12.9325 5.28743C12.9325 5.28743 12.9325 5.28743 12.9325 8.24095C12.9325 8.52667 12.7008 8.75386 12.3551 8.75386C12.3551 8.75386 12.3551 8.75386 9.42656 8.75386C9.13958 8.75386 8.90793 8.52667 8.90793 8.24095C8.90793 8.24095 8.90793 8.24096 8.90793 5.28743C8.90793 5.00171 8.67973 4.77452 8.3893 4.77452H6.60868C6.32171 4.77452 6.26293 4.6024 6.43581 4.37521C6.43581 4.37521 6.43581 4.37521 10.4604 0.395861L10.7231 0.285706Z" fill="#ED1C24"/>
<path fill-rule="evenodd" clip-rule="evenodd" d="M4.42389 6.54389C4.4965 6.57832 4.54145 6.67814 4.54145 6.82272V15.1188C4.54145 15.2633 4.4965 15.3494 4.42389 15.3769C4.35474 15.4045 4.25447 15.3769 4.13692 15.2909C4.13692 15.2909 4.13692 15.2909 0.171147 11.3115C-0.057049 11.1429 -0.057049 10.7986 0.171147 10.5714C0.171147 10.5714 0.171147 10.5714 4.13692 6.65061C4.25447 6.53701 4.35474 6.50947 4.42389 6.54389Z" fill="#ED1C24"/>
<path fill-rule="evenodd" clip-rule="evenodd" d="M9.42677 13.074C9.42677 13.074 9.42678 13.074 12.3553 13.074C12.701 13.074 12.9327 13.3012 12.9327 13.5869C12.9327 13.5869 12.9327 13.5869 12.9327 16.7125C12.9327 17.0533 13.1609 17.2805 13.4479 17.2805H15.0003C15.2873 17.2805 15.4014 17.4492 15.1732 17.6213C15.1732 17.6213 15.1732 17.6213 11.2662 21.5421C11.1486 21.6557 11.0069 21.7142 10.8616 21.7142C10.7199 21.7142 10.5747 21.6557 10.4606 21.5421C10.4606 21.5421 10.4606 21.5421 6.55358 17.6213C6.32193 17.4492 6.43602 17.2805 6.723 17.2805C6.723 17.2805 6.723 17.2805 8.38952 17.2805C8.67995 17.2805 8.90815 17.0533 8.90815 16.7125C8.90815 16.7125 8.90815 16.7125 8.90815 13.5869C8.90815 13.3012 9.1398 13.074 9.42677 13.074Z" fill="#ED1C24"/>
</g>
<defs>
<clipPath id="clip0_41_214">
<rect width="22" height="21.4286" fill="white" transform="translate(0 0.285706)"/>
</clipPath>
</defs>
</svg>
