<svg width="16" height="16" viewBox="0 0 16 16" fill="none" xmlns="http://www.w3.org/2000/svg">
<path fill-rule="evenodd" clip-rule="evenodd" d="M10.5 3.00607C9.2964 3.00607 8.28423 3.86878 8.05078 5.00607H1.5C1.22386 5.00607 1 5.22993 1 5.50607C1 5.78221 1.22386 6.00607 1.5 6.00607H8.05078C8.28423 7.14337 9.2964 8.00607 10.5 8.00607C11.7036 8.00607 12.7158 7.14337 12.9492 6.00607H14.5C14.7761 6.00607 15 5.78221 15 5.50607C15 5.22993 14.7761 5.00607 14.5 5.00607H12.9492C12.7158 3.86878 11.7036 3.00607 10.5 3.00607ZM10.5 4.00607C11.3343 4.00607 12 4.67174 12 5.50607C12 6.34041 11.3343 7.00607 10.5 7.00607C9.66566 7.00607 9 6.34041 9 5.50607C9 4.67174 9.66566 4.00607 10.5 4.00607Z" fill="#121212"/>
<path fill-rule="evenodd" clip-rule="evenodd" d="M5.5 8.00607C4.2964 8.00607 3.28423 8.86878 3.05078 10.0061H1.5C1.22386 10.0061 1 10.2299 1 10.5061C1 10.7822 1.22386 11.0061 1.5 11.0061H3.05078C3.28423 12.1434 4.2964 13.0061 5.5 13.0061C6.7036 13.0061 7.71577 12.1434 7.94922 11.0061H14.5C14.7761 11.0061 15 10.7822 15 10.5061C15 10.2299 14.7761 10.0061 14.5 10.0061H7.94922C7.71577 8.86878 6.7036 8.00607 5.5 8.00607ZM5.5 9.00607C6.33433 9.00607 7 9.67174 7 10.5061C7 11.3404 6.33433 12.0061 5.5 12.0061C4.66566 12.0061 4 11.3404 4 10.5061C4 9.67174 4.66566 9.00607 5.5 9.00607Z" fill="#121212"/>
</svg>
