<svg width="16" height="16" viewBox="0 0 16 16" fill="none" xmlns="http://www.w3.org/2000/svg">
<path d="M14.6234 6.9452L14.6226 6.94437L13.716 5.89104L13.7152 5.89019C13.6621 5.82884 13.6014 5.72377 13.5539 5.59683C13.5065 5.46991 13.4833 5.35048 13.4833 5.2685V4.13516C13.4833 3.2444 12.7541 2.51516 11.8633 2.51516H10.73C10.6518 2.51516 10.5324 2.49222 10.4036 2.44437C10.2749 2.39654 10.1688 2.3357 10.1083 2.28327L10.1075 2.28253L9.05413 1.37586L9.05413 1.37586L9.0533 1.37515C8.46769 0.874407 7.53173 0.876437 6.94185 1.37362L6.94182 1.37358L6.93751 1.37734L5.89411 2.28782C5.83216 2.33867 5.72571 2.39786 5.59791 2.44465C5.46813 2.49216 5.34837 2.51516 5.27001 2.51516H4.11668C3.22591 2.51516 2.49668 3.2444 2.49668 4.13516V5.27516C2.49668 5.35314 2.47385 5.4709 2.42657 5.59861C2.37972 5.72519 2.31999 5.83147 2.26811 5.89409L1.36925 6.95275L1.36924 6.95275L1.36818 6.95401C0.877286 7.53801 0.877286 8.46565 1.36818 9.04965L1.36818 9.04965L1.36925 9.05091L2.26727 10.1086C2.26755 10.1089 2.26784 10.1092 2.26812 10.1096C2.32 10.1722 2.37973 10.2785 2.42657 10.405C2.47385 10.5328 2.49668 10.6505 2.49668 10.7285V11.8685C2.49668 12.7593 3.22591 13.4885 4.11668 13.4885H5.27001C5.34821 13.4885 5.46763 13.5114 5.5964 13.5593C5.72513 13.6071 5.8312 13.668 5.8917 13.7204L5.89255 13.7211L6.94589 14.6278L6.94671 14.6285C7.53233 15.1293 8.46829 15.1272 9.05817 14.63L9.05818 14.6301L9.0608 14.6278L10.1141 13.7211L10.115 13.7204C10.1763 13.6672 10.2814 13.6065 10.4083 13.5591C10.5353 13.5117 10.6547 13.4885 10.7367 13.4885H11.87C12.7608 13.4885 13.49 12.7593 13.49 11.8685V10.7352C13.49 10.657 13.513 10.5375 13.5608 10.4088C13.6086 10.28 13.6695 10.174 13.7219 10.1135L13.7226 10.1126L14.6293 9.05929L14.6293 9.0593L14.6318 9.05631C15.1229 8.47217 15.1232 7.52978 14.6234 6.9452ZM6.96097 9.13753L7.19668 9.37323L7.43238 9.13753L10.299 6.27086C10.3622 6.20771 10.4711 6.20771 10.5343 6.27086C10.5975 6.33402 10.5975 6.44297 10.5343 6.50613L7.31431 9.72613C7.28277 9.75766 7.2406 9.77516 7.19668 9.77516C7.15275 9.77516 7.11058 9.75766 7.07905 9.72613L5.46571 8.11279C5.40255 8.04964 5.40255 7.94069 5.46571 7.87753C5.52887 7.81437 5.63782 7.81437 5.70097 7.87753L6.96097 9.13753Z" fill="#242424" stroke="white" stroke-width="0.666667"/>
</svg>
